<svg width="112" height="112" viewBox="0 0 112 112" fill="none" xmlns="http://www.w3.org/2000/svg">
<g filter="url(#filter0_d_1_6128)">
<circle cx="56" cy="46" r="40" fill="white"/>
</g>
<path d="M73.9768 42.4093H72.5V42.3332H56V49.6665H66.3611C64.8495 53.9354 60.7878 56.9998 56 56.9998C49.9253 56.9998 45 52.0746 45 45.9998C45 39.9251 49.9253 34.9998 56 34.9998C58.8041 34.9998 61.3552 36.0577 63.2976 37.7856L68.4832 32.6C65.2089 29.5484 60.829 27.6665 56 27.6665C45.8754 27.6665 37.6667 35.8753 37.6667 45.9998C37.6667 56.1244 45.8754 64.3332 56 64.3332C66.1246 64.3332 74.3334 56.1244 74.3334 45.9998C74.3334 44.7706 74.2069 43.5707 73.9768 42.4093Z" fill="#FFC107"/>
<path d="M39.7805 37.4666L45.8039 41.884C47.4338 37.8488 51.3809 34.9998 56 34.9998C58.8041 34.9998 61.3552 36.0577 63.2976 37.7856L68.4832 32.6C65.2089 29.5484 60.829 27.6665 56 27.6665C48.9582 27.6665 42.8514 31.6421 39.7805 37.4666Z" fill="#FF3D00"/>
<path d="M56 64.3335C60.7355 64.3335 65.0384 62.5212 68.2916 59.5741L62.6174 54.7726C60.7149 56.2195 58.3902 57.002 56 57.0001C51.2315 57.0001 47.1826 53.9596 45.6573 49.7163L39.6788 54.3226C42.7129 60.2598 48.8748 64.3335 56 64.3335Z" fill="#4CAF50"/>
<path d="M73.9768 42.4096H72.5V42.3335H56V49.6668H66.3611C65.638 51.6985 64.3356 53.4739 62.6147 54.7736L62.6174 54.7717L68.2916 59.5732C67.8901 59.9381 74.3333 55.1668 74.3333 46.0002C74.3333 44.7709 74.2068 43.571 73.9768 42.4096Z" fill="#1976D2"/>
<defs>
<filter id="filter0_d_1_6128" x="0" y="0" width="112" height="112" filterUnits="userSpaceOnUse" color-interpolation-filters="sRGB">
<feFlood flood-opacity="0" result="BackgroundImageFix"/>
<feColorMatrix in="SourceAlpha" type="matrix" values="0 0 0 0 0 0 0 0 0 0 0 0 0 0 0 0 0 0 127 0" result="hardAlpha"/>
<feOffset dy="10"/>
<feGaussianBlur stdDeviation="8"/>
<feComposite in2="hardAlpha" operator="out"/>
<feColorMatrix type="matrix" values="0 0 0 0 0.12549 0 0 0 0 0.317647 0 0 0 0 0.537255 0 0 0 0.06 0"/>
<feBlend mode="normal" in2="BackgroundImageFix" result="effect1_dropShadow_1_6128"/>
<feBlend mode="normal" in="SourceGraphic" in2="effect1_dropShadow_1_6128" result="shape"/>
</filter>
</defs>
</svg>
